<svg width="16" height="16" viewBox="0 0 16 16" fill="none" xmlns="http://www.w3.org/2000/svg">
<path d="M7.99992 1.3335C6.29084 1.33837 4.64891 1.99944 3.41325 3.18016V2.00016C3.41325 1.82335 3.34301 1.65378 3.21799 1.52876C3.09297 1.40373 2.9234 1.3335 2.74659 1.3335C2.56977 1.3335 2.40021 1.40373 2.27518 1.52876C2.15016 1.65378 2.07992 1.82335 2.07992 2.00016V5.00016C2.07992 5.17697 2.15016 5.34654 2.27518 5.47157C2.40021 5.59659 2.56977 5.66683 2.74659 5.66683H5.74659C5.9234 5.66683 6.09297 5.59659 6.21799 5.47157C6.34301 5.34654 6.41325 5.17697 6.41325 5.00016C6.41325 4.82335 6.34301 4.65378 6.21799 4.52876C6.09297 4.40373 5.9234 4.3335 5.74659 4.3335H4.14659C5.00377 3.43774 6.14626 2.8686 7.37761 2.72394C8.60896 2.57929 9.85224 2.86815 10.8937 3.54086C11.9351 4.21357 12.7097 5.2281 13.0841 6.41002C13.4586 7.59194 13.4096 8.8674 12.9455 10.0171C12.4815 11.1668 11.6314 12.1189 10.5414 12.7097C9.45136 13.3005 8.18958 13.4931 6.97296 13.2544C5.75634 13.0157 4.6609 12.3605 3.87498 11.4016C3.08906 10.4427 2.66178 9.23997 2.66659 8.00016C2.66659 7.82335 2.59635 7.65378 2.47132 7.52876C2.3463 7.40373 2.17673 7.3335 1.99992 7.3335C1.82311 7.3335 1.65354 7.40373 1.52851 7.52876C1.40349 7.65378 1.33325 7.82335 1.33325 8.00016C1.33325 9.31871 1.72425 10.6076 2.45679 11.704C3.18933 12.8003 4.23052 13.6548 5.4487 14.1594C6.66687 14.6639 8.00731 14.796 9.30052 14.5387C10.5937 14.2815 11.7816 13.6466 12.714 12.7142C13.6463 11.7819 14.2813 10.594 14.5385 9.30077C14.7957 8.00756 14.6637 6.66711 14.1591 5.44894C13.6545 4.23077 12.8 3.18957 11.7037 2.45703C10.6074 1.72449 9.31846 1.3335 7.99992 1.3335ZM7.99992 5.3335C7.82311 5.3335 7.65354 5.40373 7.52851 5.52876C7.40349 5.65378 7.33325 5.82335 7.33325 6.00016V8.00016C7.33325 8.17697 7.40349 8.34654 7.52851 8.47157C7.65354 8.59659 7.82311 8.66683 7.99992 8.66683H9.33325C9.51006 8.66683 9.67963 8.59659 9.80466 8.47157C9.92968 8.34654 9.99992 8.17697 9.99992 8.00016C9.99992 7.82335 9.92968 7.65378 9.80466 7.52876C9.67963 7.40373 9.51006 7.3335 9.33325 7.3335H8.66659V6.00016C8.66659 5.82335 8.59635 5.65378 8.47132 5.52876C8.3463 5.40373 8.17673 5.3335 7.99992 5.3335Z" fill="white"/>
</svg>
