<svg width="16" height="16" viewBox="0 0 16 16" fill="none" xmlns="http://www.w3.org/2000/svg">
<path d="M10.5133 3.91333C10.6664 4.00025 10.8477 4.02309 11.0175 3.97688C11.1874 3.93067 11.3321 3.81915 11.42 3.66667C11.4928 3.53824 11.6061 3.43759 11.7423 3.38052C11.8784 3.32344 12.0296 3.31317 12.1722 3.3513C12.3148 3.38943 12.4408 3.47381 12.5302 3.59121C12.6197 3.70861 12.6677 3.85239 12.6667 4C12.6667 4.17681 12.5964 4.34638 12.4714 4.4714C12.3464 4.59643 12.1768 4.66667 12 4.66667C11.8232 4.66667 11.6536 4.7369 11.5286 4.86193C11.4036 4.98695 11.3333 5.15652 11.3333 5.33333C11.3333 5.51014 11.4036 5.67971 11.5286 5.80474C11.6536 5.92976 11.8232 6 12 6C12.351 5.99977 12.6958 5.90717 12.9997 5.73149C13.3036 5.55581 13.5559 5.30324 13.7313 4.99917C13.9066 4.69509 13.9989 4.35022 13.9987 3.9992C13.9986 3.64818 13.9061 3.30338 13.7305 2.99944C13.5549 2.69551 13.3023 2.44315 12.9983 2.26771C12.6943 2.09227 12.3494 1.99994 11.9984 2C11.6474 2.00006 11.3026 2.0925 10.9986 2.26803C10.6946 2.44356 10.4422 2.69601 10.2667 3C10.2226 3.07609 10.194 3.16015 10.1826 3.24733C10.1711 3.33452 10.177 3.42311 10.1999 3.508C10.2229 3.5929 10.2624 3.67241 10.3161 3.74198C10.3699 3.81154 10.437 3.86978 10.5133 3.91333ZM13.38 8.66667C13.205 8.64395 13.0282 8.69155 12.8882 8.79902C12.7482 8.90649 12.6566 9.06507 12.6333 9.24C12.4934 10.3701 11.9452 11.4101 11.0918 12.164C10.2384 12.9179 9.13874 13.3338 8.00001 13.3333H4.27334L4.70668 12.9C4.83085 12.7751 4.90054 12.6061 4.90054 12.43C4.90054 12.2539 4.83085 12.0849 4.70668 11.96C4.05664 11.3074 3.61427 10.477 3.43527 9.57351C3.25628 8.66998 3.34867 7.73368 3.70081 6.88255C4.05295 6.03143 4.64909 5.30355 5.41414 4.79059C6.17918 4.27764 7.07892 4.00256 8.00001 4C8.17682 4 8.34639 3.92976 8.47142 3.80474C8.59644 3.67971 8.66668 3.51014 8.66668 3.33333C8.66668 3.15652 8.59644 2.98695 8.47142 2.86193C8.34639 2.7369 8.17682 2.66667 8.00001 2.66667C6.87283 2.67137 5.76977 2.99349 4.81721 3.59613C3.86464 4.19877 3.1011 5.05755 2.61405 6.07408C2.12701 7.09061 1.93616 8.22379 2.06338 9.34377C2.19059 10.4638 2.63072 11.5253 3.33334 12.4067L2.19334 13.5267C2.10084 13.6204 2.03818 13.7395 2.01326 13.8688C1.98834 13.9981 2.00229 14.1319 2.05334 14.2533C2.10336 14.3751 2.18829 14.4793 2.29744 14.5529C2.40658 14.6264 2.53506 14.666 2.66668 14.6667H8.00001C9.46098 14.6669 10.8718 14.134 11.9679 13.168C13.0639 12.2021 13.7699 10.8694 13.9533 9.42C13.9655 9.33284 13.9604 9.24412 13.9381 9.15898C13.9158 9.07383 13.8769 8.99393 13.8236 8.9239C13.7703 8.85386 13.7037 8.79508 13.6275 8.75093C13.5514 8.70678 13.4673 8.67814 13.38 8.66667ZM12.2533 6.71333C12.132 6.65964 11.9973 6.64339 11.8667 6.66667L11.7467 6.70667L11.6267 6.76667L11.5267 6.85333C11.4667 6.91477 11.4192 6.9872 11.3867 7.06667C11.3473 7.14982 11.3289 7.24141 11.3333 7.33333C11.3314 7.42225 11.3473 7.51065 11.38 7.59333C11.4145 7.67334 11.4643 7.74582 11.5267 7.80667C11.589 7.86845 11.6628 7.91734 11.7441 7.95051C11.8253 7.98369 11.9123 8.00051 12 8C12.1768 8 12.3464 7.92976 12.4714 7.80474C12.5964 7.67971 12.6667 7.51014 12.6667 7.33333C12.6689 7.24588 12.6507 7.15912 12.6133 7.08C12.5417 6.9198 12.4135 6.79163 12.2533 6.72V6.71333Z" fill="white"/>
</svg>
