<svg width="32" height="32" viewBox="0 0 32 32" fill="none">
<path d="M24.5434 9.62895L19.0434 7.79562H18.9792C18.9365 7.79133 18.8935 7.79133 18.8509 7.79562H18.64H18.5209H18.4567L13.25 9.58312L8.04338 7.79562C7.90552 7.75016 7.75885 7.73809 7.61542 7.76041C7.47199 7.78272 7.33591 7.83877 7.21838 7.92395C7.09991 8.0083 7.0032 8.11963 6.93626 8.24873C6.86931 8.37784 6.83405 8.52102 6.83338 8.66645V21.4998C6.83288 21.692 6.89279 21.8794 7.00465 22.0357C7.1165 22.192 7.27464 22.3091 7.45671 22.3706L12.9567 24.204C13.1414 24.2642 13.3404 24.2642 13.525 24.204L18.75 22.4623L23.9567 24.2498C24.054 24.263 24.1527 24.263 24.25 24.2498C24.4417 24.2525 24.6288 24.1912 24.7817 24.0756C24.9002 23.9913 24.9969 23.8799 25.0638 23.7508C25.1308 23.6217 25.166 23.4785 25.1667 23.3331V10.4998C25.1672 10.3076 25.1073 10.1201 24.9954 9.96388C24.8836 9.80761 24.7254 9.69045 24.5434 9.62895ZM12.3334 22.059L8.66671 20.8398V9.94062L12.3334 11.1598V22.059ZM17.8334 20.8398L14.1667 22.059V11.1598L17.8334 9.94062V20.8398ZM23.3334 22.059L19.6667 20.8398V9.94062L23.3334 11.1598V22.059Z" fill=""/>
</svg>
