<svg width="32" height="32" viewBox="0 0 32 32" fill="none">
    <path d="M24.8916 7.62157C24.7851 7.53542 24.6607 7.47424 24.5274 7.44251C24.3942 7.41078 24.2555 7.40932 24.1216 7.43824C23.7544 7.5144 23.3755 7.51466 23.0082 7.43899C22.6409 7.36332 22.293 7.21333 21.9858 6.99824C21.8314 6.88976 21.6474 6.83154 21.4587 6.83154C21.27 6.83154 21.086 6.88976 20.9316 6.99824C20.6244 7.21333 20.2765 7.36332 19.9092 7.43899C19.5419 7.51466 19.163 7.5144 18.7958 7.43824C18.6619 7.40932 18.5232 7.41078 18.39 7.44251C18.2567 7.47424 18.1323 7.53542 18.0258 7.62157C17.9206 7.70687 17.8357 7.8144 17.777 7.93645C17.7184 8.05849 17.6875 8.192 17.6866 8.3274V11.4166C17.6882 12.0803 17.8478 12.7341 18.1523 13.3239C18.4568 13.9137 18.8973 14.4225 19.4374 14.8082L20.9224 15.8716C21.0786 15.9842 21.2662 16.0448 21.4587 16.0448C21.6512 16.0448 21.8388 15.9842 21.9949 15.8716L23.4799 14.8082C24.0201 14.4225 24.4606 13.9137 24.7651 13.3239C25.0695 12.7341 25.2292 12.0803 25.2308 11.4166V8.3274C25.2299 8.192 25.199 8.05849 25.1404 7.93645C25.0817 7.8144 24.9968 7.70687 24.8916 7.62157ZM23.3974 11.4166C23.3851 11.7768 23.2903 12.1295 23.1202 12.4473C22.9502 12.7651 22.7095 13.0397 22.4166 13.2499L21.4999 13.9282L20.5008 13.2499C20.2079 13.0397 19.9672 12.7651 19.7972 12.4473C19.6271 12.1295 19.5323 11.7768 19.5199 11.4166V9.32657C20.2087 9.30448 20.8844 9.13242 21.4999 8.8224C22.101 9.12739 22.7607 9.29934 23.4341 9.32657L23.3974 11.4166ZM22.3524 17.8332C22.1179 17.7748 21.8697 17.8113 21.662 17.9349C21.4543 18.0585 21.3038 18.2592 21.2433 18.4932C20.8924 19.8776 20.0897 21.1053 18.9623 21.982C17.8349 22.8587 16.4472 23.3342 15.0191 23.3332H9.90411L10.4999 22.7557C10.6598 22.5857 10.7488 22.3612 10.7488 22.1278C10.7488 21.8945 10.6598 21.6699 10.4999 21.4999C9.58771 20.6061 8.96293 19.4605 8.70557 18.2096C8.44822 16.9586 8.56999 15.6594 9.05531 14.4781C9.54063 13.2968 10.3674 12.2872 11.4298 11.5785C12.4923 10.8698 13.742 10.4942 15.0191 10.4999C15.2622 10.4999 15.4954 10.4033 15.6673 10.2314C15.8392 10.0595 15.9358 9.82635 15.9358 9.58324C15.9358 9.34012 15.8392 9.10696 15.6673 8.93505C15.4954 8.76315 15.2622 8.66657 15.0191 8.66657C13.4676 8.67167 11.949 9.11416 10.6376 9.94325C9.32621 10.7723 8.27518 11.9544 7.60517 13.3538C6.93516 14.7531 6.67332 16.3131 6.84972 17.8545C7.02612 19.396 7.63361 20.8564 8.60244 22.0682L7.04411 23.5991C6.91539 23.7267 6.82741 23.8897 6.79131 24.0674C6.75521 24.245 6.7726 24.4294 6.84128 24.5972C6.90996 24.765 7.02685 24.9086 7.17717 25.01C7.32749 25.1113 7.50448 25.1658 7.68577 25.1666H15.0191C16.849 25.1677 18.6274 24.5605 20.0744 23.4404C21.5214 22.3203 22.555 20.7509 23.0124 18.9791C23.0469 18.8605 23.0571 18.7362 23.0423 18.6135C23.0276 18.4909 22.9882 18.3726 22.9266 18.2655C22.8649 18.1585 22.7823 18.0651 22.6836 17.9908C22.585 17.9165 22.4723 17.8629 22.3524 17.8332Z" fill=""/>
</svg>