<svg width="32" height="32" viewBox="0 0 32 32" fill="">
    <path d="M19.4008 16.6507C20.2995 15.9436 20.9555 14.974 21.2775 13.8768C21.5994 12.7795 21.5714 11.6092 21.1973 10.5287C20.8232 9.44811 20.1216 8.51102 19.1901 7.84778C18.2586 7.18454 17.1435 6.82813 16 6.82812C14.8565 6.82812 13.7414 7.18454 12.8099 7.84778C11.8784 8.51102 11.1768 9.44811 10.8027 10.5287C10.4286 11.6092 10.4005 12.7795 10.7225 13.8768C11.0445 14.974 11.7005 15.9436 12.5992 16.6507C11.0592 17.2676 9.71559 18.2909 8.71148 19.6114C7.70737 20.9319 7.08043 22.5002 6.8975 24.149C6.88426 24.2694 6.89485 24.3912 6.92869 24.5075C6.96252 24.6237 7.01893 24.7322 7.09468 24.8267C7.24768 25.0175 7.47022 25.1398 7.71333 25.1665C7.95645 25.1932 8.20023 25.1223 8.39104 24.9693C8.58186 24.8163 8.70409 24.5938 8.73083 24.3507C8.93212 22.5588 9.78654 20.9038 11.1309 19.7021C12.4752 18.5003 14.2152 17.8359 16.0183 17.8359C17.8215 17.8359 19.5615 18.5003 20.9058 19.7021C22.2501 20.9038 23.1045 22.5588 23.3058 24.3507C23.3308 24.5759 23.4382 24.7839 23.6075 24.9346C23.7768 25.0853 23.9959 25.1679 24.2225 25.1665H24.3233C24.5636 25.1388 24.7832 25.0173 24.9343 24.8285C25.0854 24.6396 25.1558 24.3987 25.13 24.1582C24.9462 22.5047 24.3159 20.9324 23.3066 19.6098C22.2973 18.2873 20.9472 17.2644 19.4008 16.6507ZM16 15.9998C15.2748 15.9998 14.5659 15.7848 13.9629 15.3819C13.3599 14.979 12.89 14.4063 12.6124 13.7363C12.3349 13.0663 12.2623 12.3291 12.4038 11.6178C12.5453 10.9066 12.8945 10.2532 13.4073 9.74044C13.9201 9.22765 14.5734 8.87843 15.2847 8.73695C15.9959 8.59547 16.7332 8.66808 17.4032 8.9456C18.0732 9.22313 18.6458 9.69309 19.0487 10.2961C19.4516 10.8991 19.6667 11.608 19.6667 12.3332C19.6667 13.3056 19.2804 14.2383 18.5927 14.9259C17.9051 15.6135 16.9725 15.9998 16 15.9998Z" fill=""/>
</svg>