<svg width="36" height="36" viewBox="0 0 36 36" fill="none" >
    <circle cx="18" cy="18" r="18" fill="white"/>
    <path fill-rule="evenodd" clip-rule="evenodd" d="M18 36C27.9411 36 36 27.9411 36 18C36 8.05887 27.9411 0 18 0C8.05887 0 0 8.05887 0 18C0 27.9411 8.05887 36 18 36ZM14.7152 14.2055L14.7168 14.2047L14.7146 14.2061C14.7143 14.2063 14.714 14.2065 14.7137 14.2068C14.7033 14.212 14.3938 14.4657 14.3938 14.4657C14.3689 14.4863 14.3427 14.5053 14.3154 14.5226C13.6913 14.9341 13.1397 15.4442 12.6824 16.0326C12.0801 16.7813 11.6338 17.641 11.3695 18.5619C11.1051 19.4827 11.0278 20.4463 11.1422 21.397C11.2565 22.3476 11.5602 23.2663 12.0357 24.0998C12.5111 24.9333 13.1488 25.665 13.9118 26.2525C13.8683 24.5398 14.3044 22.8486 15.1716 21.3663C15.2635 21.2087 15.3956 21.0778 15.5547 20.9869C15.7139 20.896 15.8943 20.8483 16.078 20.8484C16.1451 20.8482 16.2119 20.8544 16.2777 20.8671C16.4917 20.9085 16.6872 21.0151 16.837 21.172C16.9868 21.3289 17.0833 21.5283 17.113 21.7422C17.1572 22.0782 17.22 22.4115 17.3012 22.7406C17.5668 23.7179 18.037 24.6289 18.6813 25.4143C19.3255 26.1998 20.1295 26.8421 21.0408 27.2995C22.0685 26.9073 22.9935 26.2903 23.747 25.4946C24.5005 24.6988 25.0629 23.7449 25.3924 22.7039C25.7219 21.6629 25.81 20.5616 25.6501 19.4822C25.4902 18.4028 25.0864 17.373 24.4689 16.4697C23.4418 17.7845 22.0327 18.756 20.4313 19.2535C20.234 19.3145 20.0229 19.3162 19.8247 19.2584C19.6264 19.2005 19.4499 19.0858 19.3175 18.9287C19.185 18.7715 19.1025 18.579 19.0805 18.3754C19.0584 18.1719 19.0977 17.9664 19.1935 17.785C19.9172 16.4257 20.1675 14.8678 19.9057 13.3531C19.6439 11.8385 18.8845 10.4519 17.7455 9.40858C17.2637 11.2809 16.2044 12.9577 14.7152 14.2055ZM24.8829 13.8298C24.9699 13.8807 25.0506 13.9415 25.1234 14.011C26.2469 15.1442 27.0592 16.5431 27.4833 18.0749C27.9074 19.6066 27.929 21.2204 27.5463 22.7628C27.1635 24.3052 26.389 25.725 25.2963 26.8874C24.2036 28.0497 22.8291 28.916 21.3032 29.404C21.0578 29.483 20.7914 29.469 20.5557 29.3646C18.6243 28.5186 17.0362 27.0537 16.0467 25.2054C15.944 26.1009 16.0114 27.0075 16.2453 27.8785C16.2791 27.983 16.2967 28.0919 16.2976 28.2016C16.2975 28.3714 16.2554 28.5385 16.1748 28.6883C16.0942 28.8382 15.9777 28.9661 15.8355 29.0608C15.6933 29.1555 15.5298 29.2142 15.3593 29.2316C15.1889 29.249 15.0167 29.2246 14.858 29.1606C13.5061 28.6168 12.3007 27.7684 11.3374 26.6828C10.3742 25.5971 9.67952 24.304 9.30857 22.9061C8.93762 21.5082 8.90058 20.0439 9.20039 18.6293C9.5002 17.2147 10.1286 15.8888 11.0358 14.7567C11.6195 14.0072 12.3213 13.3557 13.1142 12.8273L13.3546 12.6336C14.1125 11.9981 14.7322 11.2168 15.1762 10.337C15.6203 9.45722 15.8794 8.4973 15.9379 7.5154C15.9492 7.34013 16.0052 7.17058 16.1008 7.02268C16.1964 6.87478 16.3284 6.75338 16.4844 6.66991C16.6404 6.58644 16.8152 6.54363 16.9925 6.54551C17.1698 6.54739 17.3436 6.5939 17.4978 6.68066C18.8965 7.47017 20.0591 8.61276 20.8671 9.99209C21.6752 11.3714 22.0998 12.9382 22.0978 14.533C22.0973 15.0573 22.0504 15.5806 21.9577 16.0968C22.5625 15.5843 23.0592 14.9586 23.4193 14.2554C23.4837 14.129 23.5736 14.017 23.6835 13.9264C23.7934 13.8358 23.9208 13.7684 24.058 13.7285C24.1952 13.6886 24.3392 13.6771 24.481 13.6945C24.6229 13.7119 24.7597 13.7579 24.8829 13.8298Z" fill="#DC4819"/>
</svg>
