<svg width="127" height="105" viewBox="0 0 127 105" fill="none">
<path fill-rule="evenodd" clip-rule="evenodd" d="M127 91.1087C127 91.1087 127 33.967 127 19.3261C127 15.6652 125.545 12.1534 122.958 9.56366C120.368 6.97673 116.857 5.52174 113.196 5.52174H62.1969C59.621 2.08446 55.546 0 51.1534 0H13.8043C10.1434 0 6.63158 1.45499 4.04188 4.04193C1.45495 6.63162 0 10.1434 0 13.8043C0 13.8043 0 69.7451 0 91.1087C0 94.7696 1.45495 98.2814 4.04188 100.871C6.63158 103.458 10.1434 104.913 13.8043 104.913C36.9045 104.913 90.0955 104.913 113.196 104.913C116.857 104.913 120.368 103.458 122.958 100.871C125.545 98.2814 127 94.7696 127 91.1087ZM5.52174 91.1087V13.8043C5.52174 11.6067 6.39417 9.50015 7.94854 7.94854C9.50015 6.39417 11.6067 5.52174 13.8043 5.52174H51.1534C54.2898 5.52174 57.1583 7.29423 58.5608 10.0993L66.5535 26.082C67.0201 27.0179 67.9754 27.6087 69.0217 27.6087H113.196C115.393 27.6087 117.5 28.4811 119.051 30.0355C120.606 31.5871 121.478 33.6937 121.478 35.8913V91.1087C121.478 93.3063 120.606 95.4129 119.051 96.9645C117.5 98.5189 115.393 99.3913 113.196 99.3913C90.0955 99.3913 36.9045 99.3913 13.8043 99.3913C11.6067 99.3913 9.50015 98.5189 7.94854 96.9645C6.39417 95.4129 5.52174 93.3063 5.52174 91.1087ZM65.2062 11.0435L70.728 22.087H113.196C116.199 22.087 119.104 23.0671 121.478 24.8478V19.3261C121.478 17.1284 120.606 15.0219 119.051 13.4703C117.5 11.9159 115.393 11.0435 113.196 11.0435H65.2062Z" fill=""/>
</svg>
