<svg width="21" height="21" viewBox="0 0 21 21" fill="none" stroke="none">
    <path d="M10.4875 1.23169C12.7382 1.23169 14.7957 2.04122 16.4006 3.37981L14.3386 5.44181C13.2713 4.62431 11.938 4.13413 10.4875 4.13413C6.97872 4.13413 4.13388 6.97896 4.13388 10.4878C4.13388 13.9966 6.97872 16.8414 10.4875 16.8414C13.2548 16.8414 15.6 15.07 16.4725 12.6059L16.7087 11.939H16.0012H10.9875V9.03657H18.768V9.07706H19.268H19.6344C19.7055 9.53773 19.7436 10.0086 19.7436 10.4878C19.7436 15.5995 15.5992 19.7439 10.4875 19.7439C5.37588 19.7439 1.23145 15.5995 1.23145 10.4878C1.23145 5.37612 5.37588 1.23169 10.4875 1.23169Z" fill="" stroke="" stroke-width="0.999999"/>
    <path d="M16.4007 3.37981L14.3387 5.4418C13.2714 4.62431 11.9381 4.13413 10.4877 4.13413C8.04449 4.13413 5.92803 5.51373 4.86556 7.53357L2.50795 5.80456C4.11693 3.0683 7.08691 1.23169 10.4877 1.23169C12.7383 1.23169 14.7958 2.04122 16.4007 3.37981Z" fill="" stroke="" stroke-width="0.999999"/>
    <path d="M13.9814 15.788L16.2558 17.7126C14.6724 18.9807 12.6707 19.7439 10.4871 19.7439C7.03882 19.7439 4.03598 17.8538 2.44351 15.0533L4.7748 13.2571C5.80294 15.3762 7.97069 16.8414 10.4871 16.8414C11.7803 16.8414 12.9801 16.4517 13.9814 15.788Z" fill="" stroke="" stroke-width="0.999999"/>
    <path d="M14.0146 14.5056L13.9805 14.4768L13.6672 14.7901C13.6627 14.7943 13.6582 14.7986 13.6538 14.8031L13.9852 15.1835L13.6858 15.5373L14.0146 14.5056ZM14.0146 14.5056C14.5146 14.0657 14.9322 13.5349 15.2406 12.9391H10.4873H9.9873V12.4391V8.53662V8.03662H10.4873H19.2678H19.7678L14.0146 14.5056ZM17.0897 16.9938C17.068 17.0152 17.0471 17.0355 17.027 17.0547L14.785 15.1575C15.5371 14.4644 16.1231 13.5922 16.4723 12.6059L16.7084 11.9391H16.001H10.9873V9.03662H18.7678V9.07711H19.2678H19.6342C19.7053 9.53779 19.7434 10.0087 19.7434 10.4878C19.7434 12.8042 18.9304 14.5622 18.1424 15.7201C17.748 16.2994 17.3613 16.7263 17.0897 16.9938Z" fill="" stroke="" stroke-width="0.999999"/>
</svg>
